<svg xmlns="http://www.w3.org/2000/svg" width="143" height="33" viewBox="0 0 143 33" fill="none">
  <path d="M72.9255 32.2585H71.0981V29.2505H67.9557V32.2585H66.1172V24.6533H67.9557V27.616H71.0981V24.6533H72.9255V32.2585Z" fill="#FE3B1F"/>
  <path d="M80.6777 25.6408C81.4466 26.4127 81.831 27.3548 81.831 28.4671C81.831 29.572 81.4466 30.5085 80.6777 31.2766C79.9089 32.0447 78.9674 32.4287 77.853 32.4287C76.7386 32.4287 75.7971 32.0447 75.0283 31.2766C74.2594 30.5085 73.875 29.572 73.875 28.4671C73.875 27.3547 74.2594 26.4126 75.0283 25.6408C75.7971 24.8689 76.7386 24.4829 77.853 24.4829C78.9674 24.4829 79.9089 24.8689 80.6777 25.6408ZM79.3796 30.0734C79.788 29.6458 79.9925 29.1105 79.9925 28.4673C79.9925 27.8165 79.7882 27.2754 79.3796 26.8441C78.971 26.4129 78.4621 26.1971 77.853 26.1971C77.2439 26.1971 76.735 26.4129 76.3264 26.8441C75.9178 27.2756 75.7135 27.8167 75.7135 28.4673C75.7135 29.1105 75.9178 29.646 76.3264 30.0734C76.735 30.501 77.2439 30.7147 77.853 30.7147C78.4621 30.7147 78.971 30.501 79.3796 30.0734Z" fill="#FE3B1F"/>
  <path d="M91.3948 32.2585H89.6119V28.4672L87.6619 32.2585H86.5254L84.5641 28.4445V32.2585H82.7812V24.6533H84.5865L87.0935 29.364L89.6007 24.6533H91.3948V32.2585Z" fill="#FE3B1F"/>
  <path d="M98.5314 32.2585H92.7148V24.6533H98.4981V26.2652H94.5534V27.6954H98.1748V29.2164H94.5534V30.6466H98.5314V32.2585Z" fill="#FE3B1F"/>
  <path d="M105.029 31.3276C105.553 30.9794 105.926 30.5065 106.149 29.9088L106.695 30.045C106.442 30.764 106.004 31.3334 105.38 31.7533C104.756 32.1733 104.028 32.3832 103.196 32.3832C102.119 32.3832 101.209 32.003 100.466 31.2425C99.7231 30.4819 99.3516 29.5531 99.3516 28.4558C99.3516 27.3586 99.7231 26.4297 100.466 25.6691C101.209 24.9085 102.119 24.5283 103.196 24.5283C104.028 24.5283 104.756 24.7364 105.38 25.1527C106.004 25.5687 106.442 26.1289 106.695 26.8326L106.16 27.0029C105.945 26.4052 105.573 25.9321 105.046 25.5841C104.518 25.236 103.902 25.062 103.196 25.062C102.275 25.062 101.497 25.3892 100.862 26.0438C100.226 26.6984 99.909 27.5025 99.909 28.456C99.909 29.4095 100.226 30.2136 100.862 30.8682C101.497 31.5227 102.275 31.85 103.196 31.85C103.894 31.8498 104.505 31.6758 105.029 31.3276Z" fill="#FE3B1F"/>
  <path d="M108.744 28.1835H113.19V28.6944H108.744V31.7363H113.524V32.2585H108.176V24.6533H113.524V25.1755H108.744V28.1835Z" fill="#FE3B1F"/>
  <path d="M121.166 32.2585H120.664L115.416 25.6409V32.2585H114.848V24.6533H115.349L120.609 31.3164V24.6533H121.166V32.2585Z" fill="#FE3B1F"/>
  <path d="M125.808 25.1755V32.2586H125.229V25.1755H122.32V24.6533H128.717V25.1755H125.808Z" fill="#FE3B1F"/>
  <path d="M130.428 28.1835H134.874V28.6944H130.428V31.7363H135.208V32.2585H129.859V24.6533H135.208V25.1755H130.428V28.1835Z" fill="#FE3B1F"/>
  <path d="M141.809 32.2585L138.734 28.7624H137.096V32.2585H136.527V24.6533H139.926C140.624 24.6533 141.185 24.8406 141.609 25.2152C142.032 25.5898 142.244 26.0874 142.244 26.7079C142.244 27.3285 142.032 27.826 141.609 28.2005C141.185 28.5751 140.624 28.7624 139.926 28.7624H139.447L142.545 32.2585H141.809ZM139.926 28.2516C140.453 28.2516 140.879 28.1097 141.202 27.8259C141.525 27.5421 141.687 27.1694 141.687 26.7077C141.687 26.246 141.525 25.8753 141.202 25.5953C140.879 25.3153 140.453 25.1752 139.926 25.1752H137.096V28.2513H139.926V28.2516Z" fill="#FE3B1F"/>
  <path d="M35.3535 19.4953H30.9214V18.1408C29.8134 19.326 28.3914 19.9185 26.6555 19.9185C25.0304 19.9185 23.7239 19.3775 22.7359 18.2961C21.7478 17.2144 21.2539 15.7895 21.2539 14.0211V5.33008H25.6583V13.0616C25.6583 13.8895 25.88 14.5619 26.3232 15.0792C26.7665 15.5966 27.3389 15.8553 28.0407 15.8553C28.9455 15.8553 29.652 15.5307 30.1597 14.8817C30.6676 14.2328 30.9215 13.2405 30.9215 11.9049V5.33008H35.3537L35.3535 19.4953Z" fill="#131D52"/>
  <path d="M48.2567 5.24606L48.0629 9.76102H47.2596C44.0648 9.76102 42.4674 11.5294 42.4674 15.0659V19.496H38.0352V5.33078H42.4673V8.03976C43.6122 6.10212 45.2096 5.1333 47.2594 5.1333C47.6289 5.13315 47.9613 5.17079 48.2567 5.24606Z" fill="#131D52"/>
  <path d="M63.4668 19.4953H59.0348V18.1408C57.9267 19.326 56.5049 19.9185 54.7689 19.9185C53.1438 19.9185 51.8372 19.3775 50.8491 18.2961C49.8611 17.2144 49.3672 15.7895 49.3672 14.0211V5.33008H53.7716V13.0616C53.7716 13.8895 53.9932 14.5619 54.4364 15.0792C54.8796 15.5966 55.4521 15.8553 56.1538 15.8553C57.0586 15.8553 57.7651 15.5307 58.273 14.8817C58.7808 14.2328 59.0348 13.2405 59.0348 11.9049V5.33008H63.4668V19.4953Z" fill="#131D52"/>
  <path d="M78.7662 6.5296C79.7542 7.61133 80.2482 9.03622 80.2482 10.8046V19.4956H75.8437V11.7641C75.8437 10.9362 75.6221 10.2638 75.1788 9.74645C74.7356 9.22913 74.1631 8.97039 73.4614 8.97039C72.5566 8.97039 71.8502 9.29496 71.3424 9.94394C70.8345 10.5931 70.5805 11.5854 70.5805 12.9208V19.4956H66.1484V5.33038H70.5805V6.68487C71.6885 5.49968 73.1105 4.90723 74.8465 4.90723C76.4717 4.90708 77.7783 5.44802 78.7662 6.5296Z" fill="#131D52"/>
  <path d="M96.4922 13.5701H86.2983C86.4829 14.4165 86.8431 15.0844 87.3786 15.5735C87.9141 16.0625 88.5512 16.3071 89.2899 16.3071C90.6749 16.3071 91.6629 15.7616 92.2538 14.6704L96.1873 15.4888C95.5963 16.9562 94.7054 18.0613 93.5142 18.8043C92.3231 19.5474 90.915 19.9189 89.2899 19.9189C87.2401 19.9189 85.5041 19.2181 84.0822 17.8168C82.6602 16.4153 81.9492 14.614 81.9492 12.4131C81.9492 10.231 82.6602 8.43447 84.0822 7.02346C85.5041 5.61259 87.2494 4.90723 89.3176 4.90723C91.3304 4.90723 93.0203 5.59384 94.3868 6.96707C95.7532 8.34031 96.4551 10.1557 96.4921 12.4131L96.4922 13.5701ZM87.5171 9.16802C86.9631 9.56299 86.5846 10.1087 86.3815 10.8047H92.1154C91.9123 10.0712 91.5615 9.51606 91.0628 9.13983C90.5642 8.76361 89.9825 8.57557 89.3177 8.57557C88.6712 8.57557 88.0712 8.77306 87.5171 9.16802Z" fill="#131D52"/>
  <path d="M110.993 6.5296C111.981 7.61133 112.475 9.03622 112.475 10.8046V19.4956H108.07V11.7641C108.07 10.9362 107.849 10.2638 107.405 9.74645C106.962 9.22913 106.39 8.97039 105.688 8.97039C104.783 8.97039 104.077 9.29496 103.569 9.94394C103.061 10.5931 102.807 11.5854 102.807 12.9208V19.4956H98.375V5.33038H102.807V6.68487C103.915 5.49968 105.337 4.90723 107.073 4.90723C108.698 4.90708 110.005 5.44802 110.993 6.5296Z" fill="#131D52"/>
  <path d="M118.478 14.8962C118.662 16.0061 119.484 16.5611 120.943 16.5611C121.497 16.5611 121.936 16.4531 122.259 16.2367C122.582 16.0203 122.743 15.7523 122.743 15.4324C122.743 14.9055 122.282 14.5576 121.358 14.3883L118.533 13.8241C115.837 13.3162 114.489 11.943 114.489 9.70439C114.489 8.25588 115.043 7.0943 116.151 6.21935C117.259 5.3447 118.699 4.90723 120.472 4.90723C122.171 4.90723 123.579 5.274 124.696 6.00785C125.814 6.7414 126.511 7.72896 126.788 8.97054L122.743 9.78896C122.669 9.31857 122.425 8.92346 122.009 8.60377C121.594 8.28393 121.063 8.12408 120.416 8.12408C119.862 8.12408 119.461 8.23212 119.211 8.44849C118.962 8.66502 118.837 8.9236 118.837 9.22455C118.837 9.73258 119.188 10.0617 119.89 10.2123L123.159 10.8894C124.433 11.1716 125.393 11.6842 126.04 12.4274C126.686 13.1704 127.009 14.0781 127.009 15.1504C127.009 16.674 126.428 17.8498 125.264 18.6776C124.101 19.5052 122.577 19.9191 120.694 19.9191C118.939 19.9191 117.466 19.5759 116.275 18.8891C115.084 18.2025 114.378 17.1726 114.156 15.7994L118.478 14.8962Z" fill="#131D52"/>
  <path d="M142.558 13.5701H132.365C132.549 14.4165 132.91 15.0844 133.445 15.5735C133.981 16.0625 134.618 16.3071 135.356 16.3071C136.741 16.3071 137.729 15.7616 138.32 14.6704L142.254 15.4888C141.663 16.9562 140.772 18.0613 139.581 18.8043C138.389 19.5474 136.981 19.9189 135.356 19.9189C133.307 19.9189 131.571 19.2181 130.149 17.8168C128.727 16.4153 128.016 14.614 128.016 12.4131C128.016 10.231 128.727 8.43447 130.149 7.02346C131.571 5.61259 133.316 4.90723 135.384 4.90723C137.397 4.90723 139.087 5.59384 140.453 6.96707C141.82 8.34031 142.521 10.1557 142.558 12.4131V13.5701ZM133.583 9.16802C133.029 9.56299 132.651 10.1087 132.448 10.8047H138.182C137.979 10.0712 137.628 9.51606 137.129 9.13983C136.63 8.76361 136.049 8.57557 135.384 8.57557C134.738 8.57557 134.137 8.77306 133.583 9.16802Z" fill="#131D52"/>
  <path d="M0.410156 11.1515V0.604492H10.764L0.410156 11.1515Z" fill="#FE3B1F"/>
  <path d="M10.7641 0.604492V5.18631H13.9154V11.4218C13.9154 13.9153 11.9239 15.944 9.47606 15.944C7.0281 15.944 5.03671 13.9154 5.03671 11.4218V11.1517H0.410156V11.2909C0.410156 16.3649 4.46264 20.493 9.44374 20.493H9.54024C14.5213 20.493 18.5738 16.3649 18.5738 11.2909V0.604492H10.7641Z" fill="#131D52"/>
</svg>